<?xml version="1.0" encoding="utf-8"?>
<!-- Generator: Adobe Illustrator 16.0.0, SVG Export Plug-In . SVG Version: 6.00 Build 0)  -->
<!DOCTYPE svg PUBLIC "-//W3C//DTD SVG 1.1//EN" "http://www.w3.org/Graphics/SVG/1.1/DTD/svg11.dtd">
<svg version="1.1" xmlns="http://www.w3.org/2000/svg" xmlns:xlink="http://www.w3.org/1999/xlink" x="0px" y="0px" width="1920px"
	 height="1080px" viewBox="0 0 1920 1080" enable-background="new 0 0 1920 1080" xml:space="preserve">
<g id="Three" display="none">
	<rect id="Sky" display="inline" fill="#3333FF" width="1920" height="1080"/>
	<ellipse id="Cloud_x5F_1" display="inline" fill="#FFFFFF" cx="619.013" cy="216.599" rx="103.5" ry="39.5"/>
	<ellipse id="Cloud_x5F_2" display="inline" fill="#FFFFFF" cx="1383" cy="171" rx="81.487" ry="31.099"/>
	<ellipse id="Cloud_x5F_3" display="inline" fill="#FFFFFF" cx="1082" cy="252" rx="81.487" ry="31.099"/>
</g>
<g id="Two" display="none">
	<path id="Mountain_2_" display="inline" fill="#9C8156" d="M1920,446.566c-39.251-3.736-369.441-8.6-402.565-13.125
		c-22.875-3.125-33.758-12.093-50.833-13.041c-21-1.167-32.433,4.897-45.834-1.334c-26.166-12.166-41.795-12.466-59.666-19.166
		c-73.726-27.643-129.197-54.907-184.917-76.209c-22.583-4.875-131.793-5.878-179.416-9.125c-13.459,3.125-31.446,6.443-54.959,11.5
		c-14.139,3.041-22,4.125-43.375,6.5c-49.625,32.375-91.125,40.302-138.323,54.301c-8.832,2.62-19.203,0.098-27.927,3.324
		c-38.875,14.375-70.623,18.631-110.5,20.625c-18.756,0.045-46-4.25-84-4S0,413.232,0,413.232V1080h1920
		C1920,1080,1920,468.233,1920,446.566z"/>
</g>
<g id="One">
	<polygon id="Grass_Background" fill="#55774A" points="1920,614.566 1389.435,610.566 1083.935,626.566 896.935,614.06 
		694.929,614.497 583.935,624.066 0,621.066 0,1082 1920,1080 	"/>
</g>
</svg>
